<?xml version="1.0" standalone="no"?><!DOCTYPE svg PUBLIC "-//W3C//DTD SVG 1.1//EN" "http://www.w3.org/Graphics/SVG/1.1/DTD/svg11.dtd"><svg t="1767596368453" class="icon" viewBox="0 0 1024 1024" version="1.1" xmlns="http://www.w3.org/2000/svg" p-id="9743" xmlns:xlink="http://www.w3.org/1999/xlink" width="64" height="64"><path d="M512.006021 0C229.234681 0 0 229.234681 0 511.981938s229.234681 512.006021 512.006021 512.00602 511.993979-229.210597 511.993979-512.00602S794.741236 0 512.006021 0z m66.095979 761.87989q-14.196968 15.160291-31.307988 30.525289t-35.32986 29.333176q-18.279048 13.944096-34.920449 24.516563a281.940474 281.940474 0 0 1-30.284457 17.074895q-13.703266 6.478345-21.397806 6.490387-17.797387 0-25.961547-12.980773t-9.380355-35.582733q-1.204153-22.589918 3.37163-52.404755T405.799692 705.152224q8.16416-33.896918 18.267007-69.23882t20.193652-69.226778q10.102847-33.884876 18.267007-63.699714t12.438905-52.416797q4.334952-22.589918 3.61246-35.582733t-9.380355-12.980773a80.943191 80.943191 0 0 0-20.916145 2.889968q-10.83738 2.889968-21.144933 6.490387t-18.929291 7.465751a104.845636 104.845636 0 0 1-13.944097 5.286233q1.914604-3.359588 10.331637-11.054128t21.156975-17.556556q12.739943-9.849975 29.080304-20.470608a323.170686 323.170686 0 0 1 34.137748-19.266454 254.256988 254.256988 0 0 1 36.546056-14.449841 122.23361 122.23361 0 0 1 36.052352-5.779936q15.8587 0 18.267007 19.952821t-3.359588 52.645587a727.838474 727.838474 0 0 1-17.797387 74.284222q-12.041534 41.591458-25.720716 85.09752t-26.491375 85.205894q-12.751984 41.579417-20.470607 74.284222t-7.45371 52.633545q0.228789 19.964863 12.739943 19.952822 12.980774 0 30.103835-8.429074a268.526206 268.526206 0 0 0 33.174426-19.47116 320.870753 320.870753 0 0 0 28.899681-22.120298 232.160773 232.160773 0 0 0 17.544515-16.340362 205.103447 205.103447 0 0 1-22.902998 28.622726zM627.363915 200.10621q-6.249556 6.731217-13.944096 13.703266a207.668293 207.668293 0 0 1-18.062301 14.44984 247.537812 247.537812 0 0 1-25.287221 15.653994 248.139889 248.139889 0 0 0-25.287221-34.61941 260.747375 260.747375 0 0 0-31.813733-31.789649q6.719176-4.816614 16.099531-12.980774t18.989499-17.315725q9.633227-9.115441 18.062301-17.544515t13.245687-13.703266q6.743259 6.731217 15.14825 15.389081t17.062853 18.267007q8.669904 9.633227 16.352403 19.266454a156.154611 156.154611 0 0 1 12.499113 17.785345q-6.815508 6.695093-13.065065 13.438352z" p-id="9744"></path></svg>