<?xml version="1.0" standalone="no"?><!DOCTYPE svg PUBLIC "-//W3C//DTD SVG 1.1//EN" "http://www.w3.org/Graphics/SVG/1.1/DTD/svg11.dtd"><svg t="1767436745871" class="icon" viewBox="0 0 1024 1024" version="1.1" xmlns="http://www.w3.org/2000/svg" p-id="4953" xmlns:xlink="http://www.w3.org/1999/xlink" width="200" height="200"><path d="M904.520537 499.103669c8.559638 0 16.351468-3.327168 21.925185-8.531201a27.470466 27.470466 0 0 0 8.986198-20.019884v-98.734427a27.669527 27.669527 0 0 0-8.900886-20.162071l-0.995307-0.995307a32.446999 32.446999 0 0 0-21.01519-7.450582h-229.204921c-38.959149 0-61.68058-13.87742-75.159877-37.167597-11.261185-19.479575-13.507734-43.395373-13.507734-70.297092V86.278875c0-8.133078-3.497792-15.526785-9.07151-20.873004l-1.023744-1.023744a31.366381 31.366381 0 0 0-20.446444-7.564331H467.922131c-8.360577 0-16.038657 3.270294-21.527063 8.502763l0.085312 0.056874a28.80702 28.80702 0 0 0-9.07151 20.873004V235.745508c0 26.901719-2.246549 50.789081-13.507734 70.297092-13.479297 23.290177-36.200728 37.167597-75.159877 37.167597h-229.204921c-8.701825 0-16.493654 3.213419-22.067372 8.389014l0.056875 0.056875a27.584215 27.584215 0 0 0-8.900886 20.162071v98.734427c0 7.706518 3.440918 14.844289 8.986198 20.019884 5.602155 5.23247 13.365548 8.531201 21.925185 8.531201h784.984199zM272.728262 815.980894c0-10.834625 13.45086-19.593324 30.001389-19.593324s30.001389 8.787137 30.001388 19.593324v150.945374h149.29601v-205.232247c0-14.275542 13.422422-25.849538 30.001388-25.849538 16.550529 0 30.001389 11.573995 30.001389 25.849538v205.232247h149.296009v-150.945374c0-10.834625 13.45086-19.593324 30.001389-19.593324s30.001389 8.787137 30.001388 19.593324v150.945374h159.305952c-32.219501-77.975173-32.247938-192.236385-32.247938-192.577633v-218.398734H145.670249v218.398734c0 0.341248 0 114.60246-32.247938 192.577633h159.305951v-150.945374z m665.604266-266.230332v224.598073c0 0.312811 0.028437 111.701852 30.570135 178.188342l0.42656 0.881557 0.483435 1.023744 0.682496 1.308118c3.52623 7.279958 7.990891 16.351468 7.990891 27.612652 0 22.266433-11.403371 40.381016-51.727512 40.381016H97.21303c-40.324141 0-51.699075-18.057708-51.699075-40.381016 0-11.261185 4.464662-20.332695 7.990891-27.612652l0.682496-1.308118 0.511872-1.023744 0.42656-0.881557c30.541698-66.486489 30.570135-177.875531 30.570135-178.188342v-224.598073a92.535088 92.535088 0 0 1-30.115138-18.768641c-16.692716-15.612097-27.015468-37.13916-27.015468-60.429337v-98.734427c0-23.659863 10.209003-45.073176 26.731095-60.543087l0.056875 0.056875 0.056874-0.056875a93.558833 93.558833 0 0 1 64.069316-24.882668h229.204921c13.251798 0 19.906135-2.872171 22.692994-7.678081 4.976534-8.64495 6.000278-24.285484 6.000278-42.968813V86.278875c0-23.745175 10.180566-45.2438 26.418284-60.82746l0.056875 0.056875 0.056874-0.056875A92.6204 92.6204 0 0 1 467.893693 0h88.184176c23.887361 0 45.812547 9.014635 62.10714 23.6883l1.990614 1.763115a84.174512 84.174512 0 0 1 26.446721 60.82746V235.745508c0 18.683329 0.995307 34.352301 6.000278 42.968813 2.786859 4.777472 9.412758 7.67808 22.692994 7.678081h229.204921c24.11486 0 46.068483 8.844011 62.334638 23.290177l1.81999 1.592491c16.550529 15.46991 26.759532 36.883224 26.759532 60.543087v98.734427c0 23.318615-10.322753 44.81724-27.015468 60.429337-8.531201 7.962454-18.740204 14.417729-30.086701 18.768641z m0 0" p-id="4954"></path></svg>