<?xml version="1.0" standalone="no"?><!DOCTYPE svg PUBLIC "-//W3C//DTD SVG 1.1//EN" "http://www.w3.org/Graphics/SVG/1.1/DTD/svg11.dtd"><svg t="1767259312991" class="icon" viewBox="0 0 1024 1024" version="1.1" xmlns="http://www.w3.org/2000/svg" p-id="14709" xmlns:xlink="http://www.w3.org/1999/xlink" width="200" height="200"><path d="M789.952 716.352l-3.584 3.584-211.904 214.208c-34.048 34.432-90.944 34.432-124.992 0l-212.096-214.4-3.2-3.264c-67.584-69.12-109.824-163.392-112.384-267.648 2.56-104.128 44.672-198.336 112.192-267.456L237.632 177.92C308.16 107.52 405.056 64 512 64c106.816 0 203.648 43.392 274.176 113.664l3.968 4.032c69.504 71.296 112.448 149.248 112.448 257.28C902.592 547.136 859.584 645.056 789.952 716.352zM620.672 296.128c-60.032-60.864-157.312-60.864-217.344 0-60.032 60.864-60.032 159.488 0 220.288C423.488 536.832 447.872 550.4 473.6 557.12l0 155.584 0 0 0 0 0 79.104c0 21.504 17.216 38.976 38.4 38.976 21.248 0 38.4-17.408 38.4-38.976L550.4 725.76l65.152 0c21.248 0 38.4-17.408 38.4-38.912 0-21.504-17.216-38.976-38.4-38.976l-65.152 0L550.4 557.12C576.128 550.4 600.512 536.832 620.672 516.416 680.64 455.552 680.64 356.928 620.672 296.128zM512 461.184c-34.048 0-61.696-26.688-61.696-59.584 0-32.896 27.584-59.584 61.696-59.584 34.048 0 61.696 26.688 61.696 59.584C573.696 434.496 546.048 461.184 512 461.184zM121.408 438.976c0 3.328 0.384 6.592 0.512 9.92C121.792 452.288 121.344 455.488 121.408 458.88L121.408 438.976z" p-id="14710"></path></svg>