<?xml version="1.0" standalone="no"?><!DOCTYPE svg PUBLIC "-//W3C//DTD SVG 1.1//EN" "http://www.w3.org/Graphics/SVG/1.1/DTD/svg11.dtd"><svg t="1767258637541" class="icon" viewBox="0 0 1024 1024" version="1.1" xmlns="http://www.w3.org/2000/svg" p-id="9001" xmlns:xlink="http://www.w3.org/1999/xlink" width="200" height="200"><path d="M241.28 256.64H112.64c-8.96 0-16-7.04-16-16V112c0-8.96 7.04-16 16-16h128.64c8.96 0 16 7.04 16 16v128.64c0 8.96-7.68 16-16 16z m671.36 0h-128.64c-8.96 0-16-7.04-16-16V112c0-8.96 7.04-16 16-16h128.64c8.96 0 16 7.04 16 16v128.64c-0.64 8.96-7.68 16-16 16zM241.28 928H112.64c-8.96 0-16-7.04-16-16v-129.28c0-8.96 7.04-16 16-16h128.64c8.96 0 16 7.04 16 16v128.64c0 8.96-7.68 16.64-16 16.64z m671.36 0h-128.64c-8.96 0-16-7.04-16-16v-129.28c0-8.96 7.04-16 16-16h128.64c8.96 0 16 7.04 16 16v128.64c-0.64 8.96-7.68 16.64-16 16.64z" p-id="9002"></path><path d="M881.28 881.28H142.72V142.72h738.56v738.56z m-674.56-64h610.56V206.72H206.72v610.56z" p-id="9003"></path><path d="M185.6 480a32.064 32.064 0 0 1-22.4-54.4L422.4 167.68c12.16-12.16 32.64-12.16 44.8 0s12.16 32.64 0 44.8L208.64 470.4c-6.4 6.4-14.72 9.6-23.04 9.6z m0 192a31.296 31.296 0 0 1-23.04-53.12l0.64-0.64 453.12-456.96c12.16-12.16 32-12.8 44.16-0.64l0.64 0.64c12.16 12.16 12.8 32 0.64 44.16l-0.64 0.64-453.12 456.96c-5.12 6.4-14.08 8.96-22.4 8.96z m641.28-519.68l44.8 45.44L208.64 855.68l-44.8-45.44L826.88 152.32zM380.8 864.64c-8.32 0-16.64-3.2-23.04-9.6-12.16-12.8-12.16-32.64 0.64-44.8l454.4-449.28c12.8-12.16 32.64-12.16 44.8 0.64s12.16 32.64-0.64 44.8l-454.4 449.28c-5.76 5.76-14.08 8.96-21.76 8.96z m195.84 0a32 32 0 0 1-22.4-8.96 32.064 32.064 0 0 1 0-44.8l257.28-256.64c12.16-12.16 32.64-12.16 44.8 0s12.16 32.64 0 44.8l-257.28 256.64c-6.4 5.76-14.08 8.96-22.4 8.96z" p-id="9004"></path></svg>