<?xml version="1.0" standalone="no"?><!DOCTYPE svg PUBLIC "-//W3C//DTD SVG 1.1//EN" "http://www.w3.org/Graphics/SVG/1.1/DTD/svg11.dtd"><svg t="1767597137150" class="icon" viewBox="0 0 1024 1024" version="1.1" xmlns="http://www.w3.org/2000/svg" p-id="19740" id="mx_n_1767597137150" xmlns:xlink="http://www.w3.org/1999/xlink" width="64" height="64"><path d="M293.12 64a64 64 0 0 0-55.552 32.256l-219.392 384a64 64 0 0 0 0 63.488l219.392 384A64 64 0 0 0 293.12 960h437.76a64 64 0 0 0 55.552-32.256l219.456-384a64 64 0 0 0 0-63.488l-219.456-384A64 64 0 0 0 730.88 64H293.12z m321.152 620.544A192 192 0 1 1 420.096 353.28a192 192 0 0 1 194.176 331.264z" fill-opacity=".85" p-id="19741"></path></svg>